<svg
  height="100%"
  viewBox="0.0 0.0 467.4 467.4"
  width="100%"
  xmlns="http://www.w3.org/2000/svg"
>
  <path
    d="M 422.40625 229.796875 C 422.183594 231.679688 420.601562 233.113281 418.636719 233.113281 C 418.5625 233.113281 418.414062 233.113281 418.261719 233.113281 C 416.15625 232.882812 414.722656 231 414.953125 228.886719 C 415.175781 226.859375 417.058594 225.351562 419.097656 225.652344 C 421.207031 225.882812 422.632812 227.765625 422.40625 229.796875 Z M 444.855469 232.371094 C 444.628906 234.328125 442.972656 235.761719 441.085938 235.757812 C 440.933594 235.757812 440.785156 235.757812 440.640625 235.683594 C 438.601562 235.457031 437.09375 233.570312 437.398438 231.542969 C 437.625 229.503906 439.511719 227.996094 441.539062 228.226562 C 443.652344 228.453125 445.085938 230.339844 444.855469 232.371094 Z M 390.523438 142.640625 C 389.394531 140.910156 389.851562 138.570312 391.578125 137.445312 C 393.234375 136.238281 395.648438 136.691406 396.78125 138.425781 C 397.90625 140.15625 397.453125 142.496094 395.71875 143.699219 C 395.113281 144.074219 394.363281 144.296875 393.613281 144.296875 C 392.40625 144.296875 391.273438 143.699219 390.523438 142.640625 Z M 409.292969 130.070312 C 408.160156 128.339844 408.609375 126 410.347656 124.875 C 412.078125 123.671875 414.414062 124.121094 415.546875 125.855469 C 416.671875 127.585938 416.222656 129.925781 414.484375 131.125 C 413.882812 131.507812 413.132812 131.726562 412.371094 131.726562 C 411.175781 131.726562 410.039062 131.121094 409.292969 130.070312 Z M 52.007812 341.320312 C 53.207031 343.054688 52.683594 345.386719 50.945312 346.59375 C 50.34375 346.96875 49.59375 347.195312 48.914062 347.195312 C 47.707031 347.195312 46.503906 346.589844 45.753906 345.53125 C 44.621094 343.800781 45.078125 341.464844 46.808594 340.339844 C 48.542969 339.132812 50.875 339.582031 52.007812 341.320312 Z M 70.769531 328.675781 C 71.898438 330.40625 71.449219 332.746094 69.714844 333.941406 C 69.109375 334.324219 68.359375 334.546875 67.601562 334.546875 C 66.394531 334.542969 65.195312 333.941406 64.511719 332.886719 C 63.3125 331.15625 63.835938 328.820312 65.5 327.695312 C 67.230469 326.488281 69.570312 326.9375 70.769531 328.675781 Z M 46.332031 236.980469 C 46.257812 239.011719 44.601562 240.519531 42.566406 240.519531 C 42.492188 240.519531 42.417969 240.519531 42.34375 240.519531 C 40.304688 240.363281 38.726562 238.632812 38.882812 236.519531 C 39.03125 234.410156 40.765625 232.828125 42.871094 232.984375 C 44.90625 233.132812 46.488281 234.945312 46.332031 236.980469 Z M 23.816406 235.535156 C 23.660156 237.492188 22.003906 239.074219 20.046875 239.070312 C 19.964844 239.070312 19.890625 239.070312 19.820312 239.070312 C 17.707031 238.921875 16.199219 237.113281 16.28125 235 C 16.429688 232.96875 18.242188 231.390625 20.269531 231.539062 C 22.382812 231.695312 23.964844 233.421875 23.816406 235.535156 Z M 135.191406 79.105469 C 134.152344 77.242188 134.796875 74.9375 136.585938 73.894531 C 138.367188 72.929688 140.679688 73.492188 141.714844 75.355469 C 142.761719 77.148438 142.113281 79.449219 140.335938 80.414062 C 139.710938 80.839844 138.945312 80.949219 138.269531 80.914062 C 137.066406 80.855469 135.890625 80.195312 135.191406 79.105469 Z M 123.949219 59.460938 C 122.910156 57.679688 123.550781 55.367188 125.339844 54.328125 C 127.125 53.285156 129.433594 53.929688 130.472656 55.710938 C 131.515625 57.503906 130.871094 59.804688 129.089844 60.851562 C 128.464844 61.269531 127.699219 61.386719 127.023438 61.351562 C 125.820312 61.292969 124.570312 60.625 123.949219 59.460938 Z M 343.738281 409.128906 C 344.785156 410.933594 344.191406 413.191406 342.378906 414.25 C 341.777344 414.625 341.171875 414.777344 340.496094 414.777344 C 339.214844 414.777344 337.9375 414.09375 337.253906 412.894531 C 336.203125 411.082031 336.808594 408.742188 338.617188 407.765625 C 340.425781 406.714844 342.757812 407.320312 343.738281 409.128906 Z M 332.449219 389.53125 C 333.496094 391.34375 332.902344 393.675781 331.089844 394.652344 C 330.488281 395.035156 329.882812 395.179688 329.207031 395.179688 C 327.925781 395.179688 326.648438 394.503906 325.964844 393.296875 C 324.910156 391.484375 325.515625 389.152344 327.328125 388.175781 C 329.136719 387.117188 331.46875 387.722656 332.449219 389.53125 Z M 230.28125 417.125 C 230.203125 415.011719 231.867188 413.359375 233.972656 413.359375 C 236.082031 413.289062 237.734375 414.945312 237.816406 417.054688 C 237.816406 419.085938 236.152344 420.820312 234.046875 420.894531 C 232.007812 420.890625 230.28125 419.234375 230.28125 417.125 Z M 238.105469 439.65625 C 238.105469 441.6875 236.441406 443.421875 234.335938 443.492188 C 232.300781 443.492188 230.570312 441.835938 230.570312 439.726562 C 230.492188 437.613281 232.15625 435.960938 234.261719 435.960938 C 236.371094 435.886719 238.027344 437.542969 238.105469 439.65625 Z M 229.117188 49.894531 C 229.144531 47.792969 230.820312 46.148438 232.933594 46.175781 C 234.960938 46.203125 236.675781 47.886719 236.578125 49.988281 C 236.550781 52.101562 234.867188 53.734375 232.761719 53.710938 C 230.722656 53.683594 229.089844 51.933594 229.117188 49.894531 Z M 229.476562 27.296875 C 229.503906 25.195312 231.183594 23.550781 233.292969 23.578125 C 235.402344 23.605469 237.039062 25.289062 237.011719 27.394531 C 236.984375 29.503906 235.234375 31.136719 233.195312 31.113281 C 231.085938 31.085938 229.453125 29.335938 229.476562 27.296875 Z M 129.257812 420.386719 C 128.578125 421.441406 127.371094 421.96875 126.238281 421.96875 C 125.488281 421.96875 124.730469 421.738281 124.054688 421.289062 C 122.328125 420.082031 121.953125 417.742188 123.152344 416.015625 C 124.359375 414.359375 126.699219 413.90625 128.429688 415.113281 C 130.082031 416.320312 130.535156 418.652344 129.257812 420.386719 Z M 142.375 401.9375 C 141.617188 402.988281 140.492188 403.515625 139.285156 403.515625 C 138.527344 403.515625 137.777344 403.289062 137.101562 402.839844 C 135.445312 401.632812 134.992188 399.300781 136.199219 397.5625 C 137.40625 395.910156 139.738281 395.453125 141.472656 396.660156 C 143.203125 397.867188 143.578125 400.28125 142.375 401.9375 Z M 333.066406 51.027344 C 334.34375 49.308594 336.660156 48.898438 338.375 50.097656 C 340.015625 51.300781 340.429688 53.695312 339.226562 55.339844 C 338.523438 56.351562 337.488281 56.851562 336.363281 56.902344 C 335.535156 56.941406 334.699219 56.761719 333.992188 56.265625 C 332.277344 55.066406 331.859375 52.667969 333.066406 51.027344 Z M 319.992188 69.453125 C 321.265625 67.734375 323.585938 67.320312 325.300781 68.523438 C 326.945312 69.800781 327.359375 72.121094 326.15625 73.761719 C 325.445312 74.773438 324.417969 75.347656 323.285156 75.402344 C 322.464844 75.441406 321.621094 75.179688 320.917969 74.6875 C 319.203125 73.488281 318.863281 71.164062 319.992188 69.453125 Z M 70.722656 139.058594 C 71.777344 137.25 74.035156 136.648438 75.84375 137.703125 C 77.652344 138.761719 78.253906 141.09375 77.203125 142.902344 C 76.515625 144.027344 75.234375 144.714844 73.957031 144.710938 C 73.28125 144.710938 72.675781 144.558594 72.074219 144.179688 C 70.265625 143.128906 69.667969 140.863281 70.722656 139.058594 Z M 54.453125 133.246094 C 53.777344 133.246094 53.171875 133.097656 52.570312 132.714844 C 50.761719 131.738281 50.15625 129.402344 51.21875 127.59375 C 52.273438 125.785156 54.53125 125.183594 56.339844 126.242188 C 58.148438 127.296875 58.75 129.636719 57.691406 131.4375 C 57.011719 132.570312 55.730469 133.246094 54.453125 133.246094 Z M 400.207031 329.53125 C 399.449219 330.65625 398.246094 331.339844 396.886719 331.339844 C 396.285156 331.339844 395.609375 331.183594 395.003906 330.808594 C 393.203125 329.753906 392.601562 327.488281 393.726562 325.6875 C 394.707031 323.878906 397.046875 323.273438 398.855469 324.328125 C 400.65625 325.386719 401.257812 327.71875 400.207031 329.53125 Z M 418.359375 335.792969 C 420.089844 336.84375 420.765625 339.105469 419.636719 340.914062 C 418.960938 342.121094 417.679688 342.796875 416.390625 342.796875 C 415.796875 342.796875 415.113281 342.648438 414.507812 342.265625 C 412.707031 341.210938 412.105469 338.878906 413.15625 337.144531 C 414.21875 335.335938 416.550781 334.730469 418.359375 335.792969 Z M 445.277344 256.15625 C 444.84375 257.082031 444.539062 257.742188 444.394531 258.023438 C 439.371094 267.378906 433.730469 274.558594 427.535156 279.535156 C 425.796875 276.683594 423.8125 274.035156 421.542969 271.628906 C 411.117188 260.578125 397.878906 257.300781 390.824219 256.328125 C 390.832031 256.308594 390.84375 256.292969 390.851562 256.273438 C 391.019531 255.933594 391.367188 255.140625 391.847656 254.023438 C 399.839844 235.398438 403.222656 232.765625 404.070312 232.398438 L 406.386719 231.40625 L 406.363281 229.78125 L 406.371094 229.78125 L 406.289062 224.890625 L 403.925781 223.96875 C 403.085938 223.648438 399.761719 221.277344 391.683594 204.550781 C 398.128906 204.363281 409.992188 202.65625 419.738281 193.585938 C 422.226562 191.269531 424.390625 188.621094 426.257812 185.675781 C 433.363281 191.078125 439.617188 199.035156 444.957031 209.488281 C 445.097656 209.769531 445.382812 210.433594 445.792969 211.359375 C 450.945312 223.066406 454.863281 230.128906 458.367188 233.832031 C 454.777344 237.476562 450.699219 244.480469 445.277344 256.15625 Z M 428.265625 319.472656 C 428.242188 319.773438 428.160156 320.464844 428.050781 321.445312 C 426.574219 334.214844 426.386719 342.3125 427.558594 347.289062 C 422.628906 348.628906 415.539062 352.597656 404.964844 359.929688 C 404.132812 360.503906 403.535156 360.921875 403.273438 361.085938 C 395.558594 365.804688 388.320312 368.972656 381.578125 370.621094 C 381.691406 366.085938 381.214844 361.65625 380.101562 357.355469 C 376.703125 344.277344 368.394531 335.519531 362.578125 330.753906 C 374.457031 322.96875 377.792969 322.660156 378.601562 322.757812 L 381.105469 323.132812 L 381.9375 321.738281 L 381.945312 321.742188 L 384.433594 317.535156 L 382.917969 315.519531 C 382.203125 314.570312 380.78125 310.253906 382.96875 290.777344 C 383 290.492188 383.027344 290.230469 383.054688 289.988281 C 387.953125 292.445312 395.734375 295.390625 404.910156 295.394531 C 407.863281 295.398438 410.964844 295.097656 414.160156 294.371094 C 417.753906 293.558594 421.21875 292.265625 424.546875 290.511719 C 427.65625 298.566406 428.910156 308.238281 428.265625 319.472656 Z M 362.964844 402.527344 C 362.792969 402.789062 362.382812 403.363281 361.800781 404.179688 C 354.386719 414.636719 350.335938 421.628906 348.964844 426.546875 C 343.988281 425.335938 335.871094 425.4375 323.054688 426.773438 C 322.054688 426.886719 321.339844 426.964844 321.03125 426.980469 C 309.785156 427.46875 300.269531 426.21875 292.492188 423.246094 C 293.851562 420.589844 294.953125 417.839844 295.789062 414.996094 C 299.96875 400.746094 296.382812 387.929688 293.675781 381.214844 C 293.695312 381.210938 293.710938 381.210938 293.734375 381.207031 C 313.890625 378.855469 317.863281 380.496094 318.597656 381.058594 L 320.613281 382.566406 L 322.007812 381.738281 L 322.011719 381.742188 L 323.578125 380.808594 L 324.035156 380.539062 L 324.035156 380.535156 L 326.214844 379.238281 L 325.832031 376.726562 C 325.667969 375.644531 326.335938 371.710938 335.347656 358.292969 C 338.648438 363.871094 345.835938 373.335938 358.378906 377.480469 C 362.445312 378.820312 366.707031 379.492188 371.164062 379.496094 C 371.746094 379.496094 372.335938 379.480469 372.925781 379.457031 C 371.308594 386.796875 367.992188 394.5 362.964844 402.527344 Z M 257.894531 444.957031 C 257.621094 445.09375 256.980469 445.375 256.074219 445.769531 C 244.335938 450.933594 237.261719 454.855469 233.550781 458.371094 C 229.898438 454.769531 222.867188 450.679688 211.140625 445.238281 C 210.25 444.828125 209.617188 444.539062 209.351562 444.398438 C 199.902344 439.328125 192.648438 433.730469 187.625 427.660156 C 190.5625 425.894531 193.28125 423.867188 195.746094 421.542969 C 205.871094 411.988281 209.472656 400.074219 210.753906 392.714844 C 225.984375 400.058594 228.222656 403.136719 228.539062 403.941406 L 229.464844 406.28125 L 231.082031 406.304688 L 231.082031 406.308594 L 233.007812 406.335938 L 233.429688 406.339844 L 235.976562 406.371094 L 236.960938 404.039062 C 237.324219 403.179688 239.9375 399.746094 258.398438 391.640625 C 259.488281 391.164062 260.253906 390.816406 260.59375 390.648438 C 260.621094 390.632812 260.648438 390.617188 260.679688 390.601562 C 261.15625 397.164062 263.429688 409.621094 273.339844 419.722656 C 275.808594 422.242188 278.589844 424.429688 281.660156 426.3125 C 276.257812 433.394531 268.316406 439.636719 257.894531 444.957031 Z M 147.902344 428.269531 C 147.601562 428.246094 146.910156 428.167969 145.929688 428.054688 C 133.179688 426.574219 125.085938 426.386719 120.109375 427.550781 C 118.777344 422.613281 114.789062 415.554688 107.445312 404.972656 C 106.871094 404.140625 106.453125 403.542969 106.289062 403.277344 C 101.574219 395.570312 98.410156 388.328125 96.765625 381.589844 C 97.171875 381.597656 97.582031 381.613281 97.988281 381.617188 C 102.09375 381.617188 106.109375 381.113281 110.019531 380.097656 C 123.433594 376.617188 132.304688 367.964844 136.980469 362.132812 C 147.246094 376.144531 148.113281 380.234375 147.980469 381.355469 L 147.683594 383.878906 L 149.101562 384.65625 L 149.101562 384.660156 L 153.390625 387.015625 L 155.355469 385.433594 C 156.238281 384.726562 160.160156 383.269531 177.398438 384.480469 C 174.25 390.1875 169.800781 401.105469 172.539062 413.921875 C 173.335938 417.640625 174.675781 421.222656 176.535156 424.675781 C 168.539062 427.699219 158.964844 428.921875 147.902344 428.269531 Z M 64.847656 362.96875 C 64.585938 362.800781 64.011719 362.386719 63.195312 361.808594 C 52.742188 354.398438 45.75 350.34375 40.835938 348.964844 C 42.042969 343.992188 41.941406 335.882812 40.601562 323.0625 C 40.488281 322.058594 40.410156 321.347656 40.394531 321.039062 C 39.863281 309.679688 41.117188 300.144531 44.101562 292.480469 C 46.765625 293.847656 49.523438 294.957031 52.378906 295.796875 C 57.0625 297.171875 61.59375 297.707031 65.804688 297.707031 C 72.929688 297.710938 79.136719 296.191406 83.621094 294.632812 C 84.703125 310.089844 83.378906 313.71875 82.714844 314.5625 L 81.140625 316.550781 L 83.09375 320.023438 L 83.097656 320.023438 L 84.328125 322.222656 L 86.847656 321.910156 C 88.066406 321.785156 92.464844 322.660156 108.261719 334.242188 C 108.734375 334.589844 109.140625 334.882812 109.472656 335.121094 C 103.949219 338.316406 94.140625 345.546875 89.902344 358.386719 C 88.386719 362.976562 87.742188 367.828125 87.933594 372.921875 C 80.59375 371.308594 72.878906 367.996094 64.847656 362.96875 Z M 22.417969 257.90625 C 22.28125 257.632812 22.007812 256.992188 21.609375 256.097656 C 16.453125 244.339844 12.527344 237.257812 9.011719 233.542969 C 12.609375 229.894531 16.691406 222.875 22.121094 211.167969 C 22.539062 210.269531 22.835938 209.625 22.976562 209.359375 C 28.046875 199.910156 33.644531 192.65625 39.714844 187.632812 C 41.480469 190.5625 43.507812 193.277344 45.832031 195.738281 C 55.402344 205.890625 67.355469 209.488281 74.710938 210.761719 C 74.566406 211.089844 74.40625 211.453125 74.222656 211.886719 C 66.445312 229.996094 63.074219 233.039062 61.984375 233.511719 L 59.65625 234.507812 L 59.738281 238.488281 L 59.785156 241.011719 L 62.140625 241.933594 C 63.25 242.359375 66.71875 245.253906 75.089844 262.84375 C 68.53125 263.113281 57.089844 264.996094 47.628906 273.796875 C 45.144531 276.113281 42.980469 278.761719 41.113281 281.703125 C 34.011719 276.300781 27.753906 268.347656 22.417969 257.90625 Z M 39.105469 147.90625 C 39.128906 147.605469 39.210938 146.90625 39.320312 145.921875 C 40.800781 133.175781 40.988281 125.089844 39.824219 120.113281 C 44.761719 118.78125 51.820312 114.792969 62.40625 107.449219 C 63.234375 106.878906 63.832031 106.460938 64.097656 106.296875 C 71.597656 101.710938 78.65625 98.589844 85.242188 96.902344 C 85.035156 101.746094 85.53125 106.414062 86.761719 110.890625 C 90.207031 123.460938 98.46875 131.253906 103.613281 135.0625 C 91.949219 142.710938 88.441406 143.203125 87.457031 143.152344 L 84.964844 142.777344 L 84.140625 144.152344 L 81.621094 148.359375 L 83.140625 150.382812 C 83.863281 151.332031 85.289062 155.652344 83.09375 175.121094 C 82.972656 176.1875 82.894531 176.960938 82.859375 177.382812 C 77.136719 174.226562 66.21875 169.792969 53.453125 172.539062 C 49.738281 173.332031 46.152344 174.671875 42.703125 176.535156 C 39.691406 168.546875 38.472656 158.988281 39.105469 147.90625 Z M 104.40625 64.855469 C 104.566406 64.597656 104.972656 64.023438 105.546875 63.222656 C 112.976562 52.753906 117.039062 45.75 118.410156 40.828125 C 123.382812 42.039062 131.484375 41.941406 144.3125 40.597656 C 145.316406 40.488281 146.035156 40.410156 146.34375 40.394531 C 157.699219 39.859375 167.234375 41.113281 174.894531 44.097656 C 173.527344 46.761719 172.417969 49.523438 171.578125 52.378906 C 167.703125 65.597656 170.507812 77.585938 173.097656 84.609375 C 172.84375 84.640625 172.570312 84.671875 172.277344 84.703125 C 152.71875 86.96875 148.402344 85.558594 147.460938 84.84375 L 145.433594 83.320312 L 142.910156 84.84375 L 139.851562 86.679688 L 140.234375 89.175781 C 140.394531 90.257812 139.734375 94.140625 130.921875 107.308594 C 127.238281 101.667969 120.28125 93.628906 108.988281 89.902344 C 104.304688 88.351562 99.335938 87.71875 94.121094 87.953125 C 95.882812 80.703125 99.308594 72.988281 104.40625 64.855469 Z M 209.46875 22.425781 C 209.742188 22.292969 210.382812 22.015625 211.273438 21.625 C 223.035156 16.453125 230.121094 12.527344 233.835938 9.011719 C 237.476562 12.597656 244.480469 16.675781 256.148438 22.097656 C 257.074219 22.53125 257.738281 22.835938 258.015625 22.980469 C 267.460938 28.050781 274.714844 33.648438 279.742188 39.714844 C 276.8125 41.480469 274.101562 43.507812 271.636719 45.832031 C 261.851562 55.054688 258.160156 66.484375 256.765625 73.886719 C 240.6875 66.257812 237.945312 63.023438 237.527344 61.960938 L 236.597656 59.605469 L 232.609375 59.570312 L 230.085938 59.539062 L 229.097656 61.878906 C 228.738281 62.730469 226.121094 66.15625 207.660156 74.269531 C 206.578125 74.746094 205.8125 75.09375 205.476562 75.261719 C 205.15625 75.425781 204.859375 75.589844 204.542969 75.753906 C 204.371094 69.320312 202.683594 57.414062 193.578125 47.636719 C 191.265625 45.148438 188.613281 42.988281 185.667969 41.121094 C 191.070312 34.015625 199.023438 27.761719 209.46875 22.425781 Z M 319.46875 39.109375 C 319.769531 39.132812 320.46875 39.214844 321.445312 39.324219 C 334.203125 40.808594 342.285156 40.992188 347.261719 39.828125 C 348.59375 44.777344 352.59375 51.84375 359.960938 62.453125 C 360.527344 63.273438 360.929688 63.84375 361.085938 64.101562 C 365.804688 71.816406 368.96875 79.058594 370.613281 85.804688 C 366.078125 85.691406 361.648438 86.167969 357.351562 87.28125 C 343.832031 90.789062 334.921875 99.554688 330.269531 105.386719 C 318.878906 90.066406 317.949219 85.71875 318.082031 84.554688 L 318.382812 82.046875 L 316.972656 81.261719 L 316.972656 81.257812 L 312.683594 78.878906 L 310.710938 80.46875 C 309.863281 81.144531 306.203125 82.507812 290.683594 81.558594 C 293.734375 75.578125 297.371094 65.335938 294.835938 53.449219 C 294.042969 49.738281 292.703125 46.15625 290.84375 42.707031 C 298.832031 39.695312 308.394531 38.480469 319.46875 39.109375 Z M 387.859375 196.921875 L 387.824219 197.210938 C 386.210938 194.464844 384.558594 191.90625 382.878906 189.507812 C 383.042969 186.816406 383.109375 184.011719 383.074219 181.097656 C 388.367188 178.832031 400.050781 175.054688 412.875 178.816406 C 415.289062 179.523438 417.628906 180.464844 419.894531 181.636719 C 418.382812 184.019531 416.648438 186.15625 414.664062 188.015625 C 403.402344 198.558594 388.007812 196.953125 387.859375 196.921875 Z M 384.925781 251.054688 C 384.527344 251.972656 384.253906 252.632812 384.113281 252.90625 C 383.023438 255.089844 381.910156 257.15625 380.78125 259.117188 C 378.433594 250.496094 374.535156 243.605469 369.078125 238.539062 C 365.941406 235.632812 362.621094 233.644531 359.4375 232.289062 C 362.191406 231.035156 364.988281 229.332031 367.664062 227.015625 C 374.527344 221.0625 379.117188 212.394531 381.402344 201.140625 C 382.015625 202.191406 382.628906 203.265625 383.234375 204.371094 C 383.382812 204.636719 383.675781 205.269531 384.09375 206.152344 C 389.605469 217.75 393.738281 224.714844 397.367188 228.320312 C 393.882812 232.070312 390.011719 239.199219 384.925781 251.054688 Z M 382.796875 269.984375 C 384.214844 267.957031 385.597656 265.796875 386.945312 263.496094 C 390.921875 263.761719 405.390625 265.484375 416.058594 276.796875 C 418.03125 278.886719 419.753906 281.203125 421.253906 283.71875 C 418.457031 285.21875 415.5625 286.320312 412.574219 287.007812 C 399.195312 290.070312 387.363281 283.960938 383.394531 281.558594 C 383.40625 277.472656 383.207031 273.613281 382.796875 269.984375 Z M 352.492188 328.496094 C 351.664062 329.070312 351.085938 329.480469 350.820312 329.644531 C 350.355469 329.929688 349.902344 330.1875 349.441406 330.464844 C 352.609375 320.054688 352.890625 310.578125 350.21875 302.148438 C 349 298.316406 347.28125 295.070312 345.371094 292.339844 C 345.882812 292.363281 346.394531 292.394531 346.917969 292.394531 C 349.28125 292.394531 351.773438 292.152344 354.371094 291.574219 C 362.089844 289.84375 369.261719 285.476562 375.839844 278.5625 C 375.910156 281.546875 375.875 284.667969 375.695312 287.957031 C 375.671875 288.265625 375.589844 288.957031 375.480469 289.9375 C 374.042969 302.6875 373.878906 310.777344 375.054688 315.746094 C 370.105469 317.089844 363.070312 321.109375 352.492188 328.496094 Z M 90.933594 291.445312 C 91.003906 291.40625 91.058594 291.375 91.085938 291.359375 L 90.898438 291.035156 C 90.84375 290.382812 90.792969 289.742188 90.734375 289.0625 C 90.636719 288.0625 90.574219 287.347656 90.566406 287.039062 C 90.550781 286.523438 90.550781 286.027344 90.539062 285.515625 C 98 293.488281 106.015625 298.359375 114.527344 300.015625 C 116.761719 300.449219 118.894531 300.636719 120.925781 300.636719 C 122.550781 300.636719 124.097656 300.511719 125.566406 300.304688 C 123.988281 302.730469 122.597656 305.523438 121.59375 308.730469 C 119.214844 316.316406 119.425781 324.761719 122.167969 333.972656 C 119.617188 332.601562 117.015625 331.074219 114.347656 329.347656 C 114.09375 329.175781 113.519531 328.757812 112.71875 328.167969 C 102.378906 320.589844 95.453125 316.425781 90.554688 314.972656 C 91.761719 310.335938 91.859375 302.914062 90.933594 291.445312 Z M 79.296875 270.433594 C 80.574219 272.527344 81.871094 274.523438 83.191406 276.398438 C 82.984375 279.707031 82.925781 283.171875 83.023438 286.8125 C 77.269531 289.070312 66.367188 292.046875 54.5 288.566406 C 52.085938 287.855469 49.746094 286.914062 47.476562 285.746094 C 48.988281 283.363281 50.71875 281.222656 52.703125 279.367188 C 63.242188 269.492188 77.402344 270.261719 79.296875 270.433594 Z M 83.265625 195.929688 C 81.597656 198.320312 79.980469 200.917969 78.40625 203.683594 C 72.785156 203.007812 60.605469 200.429688 51.308594 190.578125 C 49.261719 188.402344 47.480469 185.984375 45.941406 183.355469 C 48.847656 181.742188 51.851562 180.597656 54.941406 179.925781 C 69.996094 176.660156 82.402344 185.953125 82.519531 186.046875 L 82.65625 185.871094 C 82.695312 189.402344 82.90625 192.746094 83.265625 195.929688 Z M 113.546875 137.433594 C 114.378906 136.847656 114.976562 136.4375 115.246094 136.265625 C 115.6875 135.996094 116.117188 135.75 116.550781 135.488281 C 113.347656 145.929688 113.109375 155.3125 115.910156 163.515625 C 117.289062 167.5625 119.265625 170.886719 121.425781 173.59375 C 118.40625 173.390625 115.136719 173.566406 111.6875 174.335938 C 103.96875 176.0625 96.796875 180.429688 90.222656 187.347656 C 90.148438 184.359375 90.1875 181.242188 90.367188 177.953125 C 90.390625 177.644531 90.46875 176.949219 90.582031 175.972656 C 92.015625 163.21875 92.179688 155.128906 91.007812 150.15625 C 95.941406 148.808594 102.988281 144.800781 113.546875 137.433594 Z M 375.335938 176.847656 C 375.429688 177.847656 375.496094 178.5625 375.503906 178.871094 C 375.519531 179.386719 375.519531 179.882812 375.527344 180.394531 C 368.070312 172.421875 360.050781 167.550781 351.539062 165.894531 C 347.523438 165.113281 343.808594 165.140625 340.496094 165.605469 C 342.074219 163.179688 343.464844 160.386719 344.46875 157.179688 C 346.851562 149.578125 346.640625 141.121094 343.886719 131.894531 C 346.433594 133.28125 349.035156 134.820312 351.710938 136.554688 C 351.96875 136.71875 352.527344 137.136719 353.320312 137.71875 C 363.671875 145.308594 370.609375 149.480469 375.507812 150.933594 C 374.21875 155.886719 374.191406 164.003906 375.335938 176.847656 Z M 342.519531 227.996094 C 341.753906 210.132812 336.785156 193.351562 328.574219 178.613281 C 331.082031 176.832031 339.945312 171.257812 350.21875 173.308594 C 359.011719 175.0625 367.367188 181.234375 375.160156 191.675781 C 373.933594 205.203125 369.804688 215.136719 362.804688 221.253906 C 355.386719 227.730469 346.453125 228.171875 342.519531 227.996094 Z M 334.113281 281.777344 C 333.1875 281.214844 332.429688 280.8125 331.925781 280.5625 C 338.21875 267.285156 341.964844 252.578125 342.546875 237.085938 C 345.351562 236.921875 356.226562 236.816406 364.050781 244.148438 C 369.730469 249.472656 373.371094 257.460938 374.960938 267.972656 C 368.195312 276.9375 360.789062 282.382812 352.828125 284.191406 C 344.996094 285.992188 338.195312 283.761719 334.113281 281.777344 Z M 134.371094 289.492188 C 130.996094 291.414062 124.246094 294.265625 115.847656 292.601562 C 107.054688 290.847656 98.703125 284.675781 90.90625 274.234375 C 92.128906 260.707031 96.253906 250.773438 103.257812 244.65625 C 108.570312 240.019531 114.65625 238.476562 119.132812 238.039062 C 119.96875 256.410156 125.21875 273.964844 134.371094 289.492188 Z M 130.515625 183.480469 C 123.699219 197.273438 119.648438 212.65625 119.082031 228.90625 C 115.136719 228.714844 108.125 227.480469 102.019531 221.761719 C 96.335938 216.433594 92.695312 208.449219 91.105469 197.9375 C 97.867188 188.96875 105.269531 183.523438 113.230469 181.710938 C 120.210938 180.121094 126.367188 181.714844 130.515625 183.480469 Z M 231.269531 336 C 231.089844 336 230.921875 336 230.746094 336 C 203.386719 335.984375 177.636719 325.378906 158.195312 306.109375 C 138.628906 286.710938 127.78125 260.855469 127.65625 233.296875 C 127.414062 176.421875 173.488281 129.933594 230.371094 129.683594 C 230.546875 129.683594 230.71875 129.683594 230.894531 129.6875 C 258.253906 129.699219 284.003906 140.308594 303.445312 159.578125 C 323.011719 178.972656 333.855469 204.832031 333.980469 232.390625 C 334.222656 289.265625 288.152344 335.753906 231.269531 336 Z M 291.746094 138.824219 C 291.789062 138.722656 296.113281 128.542969 307.796875 124.902344 C 315.332031 122.5625 324.1875 123.398438 334.242188 127.34375 C 338.703125 137.773438 339.738281 146.980469 337.3125 154.828125 C 334.496094 163.941406 327.511719 168.976562 323.945312 171.027344 C 315.25 157.972656 303.886719 146.839844 290.644531 138.417969 C 290.648438 138.40625 290.65625 138.394531 290.664062 138.382812 Z M 239.898438 101.742188 C 245.816406 94.9375 255.230469 90.71875 268.3125 89.195312 C 279.4375 97.03125 285.988281 105.582031 287.785156 114.714844 C 289.511719 123.460938 286.332031 130.808594 284.144531 134.585938 C 269.003906 126.339844 251.761719 121.492188 233.457031 121.066406 C 233.25 118.214844 233.238281 109.402344 239.898438 101.742188 Z M 192.34375 92.367188 C 203.722656 93.730469 212.277344 97.449219 217.894531 103.53125 C 223.417969 109.527344 224.832031 116.664062 225.117188 121.183594 C 208.859375 122.003906 193.511719 126.308594 179.808594 133.367188 C 178.007812 130.242188 174.800781 123.046875 176.871094 114.050781 C 178.644531 106.359375 183.84375 99.105469 192.34375 92.367188 Z M 126.523438 130.1875 C 138.859375 124.527344 149.527344 123.171875 158.320312 126.195312 C 165.488281 128.667969 169.992188 133.691406 172.511719 137.472656 C 157.117188 146.921875 144.175781 159.988281 134.878906 175.480469 C 131.550781 173.515625 125.773438 169.109375 123.039062 161.085938 C 120.136719 152.5625 121.316406 142.203125 126.523438 130.1875 Z M 128.75 311.078125 C 130.894531 304.128906 135.476562 299.546875 139.113281 296.855469 C 142.933594 302.308594 147.269531 307.464844 152.097656 312.253906 C 158.664062 318.761719 165.894531 324.355469 173.632812 328.976562 C 170.871094 332.777344 165.789062 338.074219 157.761719 340.484375 C 150.171875 342.765625 141.457031 342.046875 131.746094 338.378906 C 127.351562 328.027344 126.335938 318.882812 128.75 311.078125 Z M 178.277344 351.1875 C 176.78125 343.601562 178.976562 337.074219 181.011719 333.011719 C 196.277344 340.617188 213.199219 344.644531 230.734375 344.652344 C 230.925781 344.652344 231.117188 344.652344 231.308594 344.652344 C 232 344.648438 232.691406 344.632812 233.382812 344.617188 C 233.445312 345.964844 233.585938 347.503906 233.859375 349.175781 C 232.804688 353.597656 230.613281 358.984375 226.101562 363.835938 C 219.707031 370.722656 210.1875 375.015625 197.628906 376.625 C 186.574219 368.8125 180.070312 360.285156 178.277344 351.1875 Z M 288.980469 351.652344 C 287.085938 359.511719 281.914062 366.832031 273.585938 373.535156 C 262.289062 372.160156 253.753906 368.433594 248.175781 362.371094 C 244.25 358.113281 242.398438 353.277344 241.554688 349.214844 C 241.929688 347.285156 242.136719 345.539062 242.242188 344.070312 C 257.9375 342.46875 272.671875 337.609375 285.773438 330.183594 C 286.109375 330.785156 286.496094 331.433594 286.933594 332.113281 C 288.785156 336.148438 291 343.265625 288.980469 351.652344 Z M 343.035156 304.425781 C 345.84375 313.273438 344.640625 323.769531 339.5 335.738281 C 327.179688 341.382812 316.527344 342.738281 307.742188 339.707031 C 300.488281 337.207031 295.960938 332.089844 293.460938 328.296875 C 293.058594 327.46875 292.679688 326.75 292.34375 326.15625 C 307.257812 316.289062 319.675781 302.949219 328.441406 287.300781 C 329.074219 287.664062 329.789062 288.054688 330.597656 288.453125 C 334.003906 290.601562 340.21875 295.558594 343.035156 304.425781 Z M 370.347656 106.550781 C 365.566406 121.195312 351.28125 127.203125 351.140625 127.265625 L 351.191406 127.382812 C 347.3125 125.085938 343.539062 123.144531 339.882812 121.546875 C 338.417969 118.445312 336.6875 115.265625 334.710938 112.011719 C 338.003906 107.410156 346.128906 97.976562 359.246094 94.574219 C 363.285156 93.523438 367.488281 93.125 371.828125 93.375 C 372.167969 98.050781 371.6875 102.453125 370.347656 106.550781 Z M 311.195312 88.320312 C 312.695312 93.210938 316.925781 100.117188 324.628906 110.433594 C 325.238281 111.25 325.679688 111.828125 325.859375 112.101562 C 327.144531 114.050781 328.328125 115.964844 329.421875 117.847656 C 320.703125 115.539062 312.726562 115.472656 305.558594 117.710938 C 301.652344 118.925781 298.394531 120.707031 295.703125 122.683594 C 295.941406 119.800781 295.84375 116.683594 295.207031 113.386719 C 293.484375 104.464844 288.273438 96.15625 279.664062 88.550781 C 280.882812 88.546875 282.125 88.558594 283.390625 88.589844 C 283.695312 88.597656 284.390625 88.65625 285.371094 88.730469 C 298.160156 89.765625 306.257812 89.664062 311.195312 88.320312 Z M 287.449219 54.941406 C 290.058594 66.988281 284.628906 77.335938 282.3125 81.046875 C 278.097656 80.996094 274.105469 81.136719 270.34375 81.46875 C 268.285156 80.105469 266.113281 78.769531 263.816406 77.460938 C 264.660156 71.511719 267.464844 60.117188 276.796875 51.316406 C 278.972656 49.265625 281.390625 47.484375 284.023438 45.945312 C 285.632812 48.851562 286.78125 51.851562 287.449219 54.941406 Z M 233.25 68.550781 C 236.890625 72.140625 243.894531 76.21875 255.570312 81.644531 C 256.496094 82.078125 257.160156 82.382812 257.441406 82.527344 C 257.898438 82.773438 258.328125 83.023438 258.777344 83.273438 C 248.132812 85.742188 239.90625 90.246094 234.214844 96.796875 C 231.648438 99.746094 229.851562 102.828125 228.601562 105.800781 C 227.324219 103.347656 225.667969 100.878906 223.515625 98.527344 C 218.113281 92.613281 210.628906 88.515625 201.191406 86.265625 C 203.59375 84.804688 206.148438 83.371094 208.890625 81.972656 C 209.164062 81.839844 209.804688 81.558594 210.695312 81.171875 C 222.457031 76 229.539062 72.074219 233.25 68.550781 Z M 178.808594 54.5 C 179.519531 52.085938 180.460938 49.742188 181.632812 47.476562 C 184.015625 48.984375 186.152344 50.71875 188.007812 52.703125 C 198.242188 63.636719 196.957031 79.242188 196.917969 79.527344 C 196.914062 79.535156 196.890625 79.90625 196.882812 80.078125 C 194.507812 81.539062 192.28125 83.027344 190.203125 84.554688 C 187.296875 84.308594 184.238281 84.214844 181.058594 84.242188 C 178.789062 78.925781 175.054688 67.289062 178.808594 54.5 Z M 147.265625 92.695312 C 152.242188 93.851562 160.34375 93.667969 173.140625 92.1875 C 174.15625 92.074219 174.867188 91.988281 175.191406 91.96875 C 177.433594 91.84375 179.589844 91.789062 181.6875 91.789062 C 175.25 98.226562 171.15625 105.148438 169.496094 112.519531 C 168.636719 116.335938 168.515625 119.898438 168.824219 123.105469 C 166.539062 121.554688 163.914062 120.171875 160.90625 119.121094 C 152.316406 116.113281 142.523438 116.445312 131.636719 120.058594 C 132.242188 119.007812 132.867188 117.945312 133.523438 116.867188 C 133.6875 116.605469 134.09375 116.03125 134.652344 115.214844 C 141.957031 104.671875 145.941406 97.628906 147.265625 92.695312 Z M 92.875 95.582031 C 97.738281 95.171875 102.308594 95.640625 106.550781 97.027344 C 117.921875 100.746094 124.085938 110.1875 126.300781 114.285156 C 124.203125 117.804688 122.367188 121.238281 120.804688 124.578125 C 117.710938 126.105469 114.546875 127.851562 111.300781 129.847656 C 111.109375 129.96875 110.757812 130.203125 110.308594 130.511719 C 107.011719 128.421875 97.417969 121.421875 93.992188 108.792969 C 92.863281 104.617188 92.503906 100.207031 92.875 95.582031 Z M 68.914062 237.808594 C 68.902344 237.679688 68.871094 237.554688 68.84375 237.429688 C 72.292969 233.640625 76.125 226.542969 81.144531 214.855469 C 81.539062 213.9375 81.8125 213.273438 81.953125 212.996094 C 83.042969 210.816406 84.152344 208.753906 85.285156 206.796875 C 87.628906 215.414062 91.523438 222.304688 96.984375 227.371094 C 100.121094 230.28125 103.441406 232.265625 106.625 233.625 C 103.871094 234.878906 101.074219 236.582031 98.40625 238.898438 C 91.539062 244.851562 86.949219 253.515625 84.664062 264.773438 C 84.046875 263.71875 83.433594 262.640625 82.824219 261.527344 C 82.675781 261.257812 82.375 260.609375 81.941406 259.695312 C 76.546875 248.355469 72.476562 241.464844 68.914062 237.808594 Z M 97.023438 360.832031 C 101.3125 347.707031 113.738281 340.734375 116.375 339.382812 C 119.695312 341.269531 122.945312 342.890625 126.117188 344.238281 C 127.851562 347.933594 129.972656 351.738281 132.433594 355.644531 C 128.984375 360.359375 120.859375 369.53125 108.035156 372.828125 C 104.027344 373.855469 99.859375 374.242188 95.542969 373.992188 C 95.207031 369.320312 95.683594 364.921875 97.023438 360.832031 Z M 154.871094 377.578125 C 153.363281 372.683594 149.121094 365.765625 141.402344 355.441406 C 140.804688 354.640625 140.371094 354.066406 140.203125 353.808594 C 138.84375 351.75 137.59375 349.730469 136.449219 347.746094 C 140.636719 348.792969 144.675781 349.328125 148.554688 349.332031 C 152.511719 349.335938 156.308594 348.792969 159.929688 347.695312 C 164.023438 346.464844 167.5 344.648438 170.417969 342.605469 C 170.109375 345.65625 170.179688 348.984375 170.859375 352.515625 C 172.578125 361.441406 177.789062 369.746094 186.398438 377.355469 C 185.179688 377.363281 183.9375 377.351562 182.675781 377.320312 C 182.375 377.3125 181.675781 377.253906 180.6875 377.171875 C 167.910156 376.148438 159.804688 376.246094 154.871094 377.578125 Z M 179.929688 412.441406 C 176.726562 397.636719 185.640625 385.40625 186.03125 384.882812 C 189.382812 384.867188 192.59375 384.703125 195.671875 384.40625 C 198.148438 386.050781 200.808594 387.660156 203.640625 389.226562 C 202.898438 394.984375 200.214844 407.015625 190.503906 416.125 C 188.351562 418.148438 185.957031 419.90625 183.351562 421.4375 C 181.742188 418.53125 180.597656 415.53125 179.929688 412.441406 Z M 232.816406 397.351562 C 229.171875 393.753906 222.148438 389.671875 210.4375 384.234375 C 209.539062 383.816406 208.890625 383.523438 208.628906 383.382812 C 208.089844 383.09375 207.582031 382.800781 207.058594 382.511719 C 217.347656 379.984375 225.585938 375.460938 231.625 368.960938 C 234.191406 366.199219 236.144531 363.300781 237.640625 360.445312 C 238.890625 362.789062 240.492188 365.132812 242.542969 367.378906 C 247.953125 373.296875 255.421875 377.375 264.878906 379.617188 C 262.476562 381.09375 259.921875 382.535156 257.175781 383.9375 C 256.902344 384.070312 256.261719 384.347656 255.371094 384.738281 C 243.613281 389.90625 236.53125 393.828125 232.816406 397.351562 Z M 267.972656 386.558594 C 270.792969 384.867188 273.390625 383.117188 275.808594 381.320312 C 278.921875 381.582031 282.207031 381.683594 285.640625 381.644531 C 287.691406 385.964844 292.714844 398.71875 288.558594 412.875 C 287.84375 415.304688 286.894531 417.664062 285.710938 419.949219 C 283.144531 418.390625 280.824219 416.589844 278.78125 414.515625 C 267.273438 402.855469 268.113281 386.730469 268.121094 386.570312 Z M 318.800781 373.203125 C 313.8125 372.046875 305.691406 372.238281 292.859375 373.722656 C 291.875 373.839844 291.175781 373.921875 290.875 373.941406 C 288.554688 374.074219 286.316406 374.132812 284.148438 374.132812 C 290.441406 367.75 294.519531 360.832031 296.308594 353.414062 C 297.21875 349.632812 297.441406 346.066406 297.253906 342.808594 C 299.539062 344.359375 302.160156 345.738281 305.160156 346.789062 C 309.035156 348.136719 313.15625 348.816406 317.511719 348.820312 C 322.804688 348.820312 328.453125 347.820312 334.429688 345.835938 C 333.828125 346.894531 333.199219 347.957031 332.542969 349.03125 C 332.378906 349.296875 331.976562 349.871094 331.414062 350.6875 C 324.109375 361.226562 320.125 368.265625 318.800781 373.203125 Z M 374.003906 371.84375 C 369.328125 372.179688 364.925781 371.699219 360.824219 370.355469 C 346.179688 365.5625 340.171875 351.28125 340.113281 351.140625 L 340.027344 351.175781 C 342 347.828125 343.738281 344.554688 345.226562 341.359375 C 348.335938 339.824219 351.515625 338.066406 354.773438 336.058594 C 355.007812 335.917969 355.441406 335.621094 356.03125 335.207031 C 360.824219 338.773438 369.558594 346.738281 372.808594 359.242188 C 373.859375 363.289062 374.253906 367.492188 374.003906 371.84375 Z M 402.519531 104.410156 C 402.777344 104.574219 403.351562 104.976562 404.152344 105.550781 C 414.621094 112.980469 421.621094 117.039062 426.542969 118.417969 C 425.332031 123.390625 425.433594 131.503906 426.777344 144.320312 C 426.886719 145.320312 426.964844 146.035156 426.980469 146.34375 C 427.511719 157.703125 426.257812 167.238281 423.273438 174.898438 C 420.609375 173.53125 417.851562 172.425781 414.996094 171.585938 C 401.65625 167.65625 389.585938 170.546875 382.585938 173.160156 C 381.253906 156.113281 382.65625 152.222656 383.351562 151.34375 L 384.929688 149.359375 L 384.132812 147.945312 L 383.441406 146.714844 L 382.972656 145.886719 L 381.730469 143.6875 L 379.222656 144 C 378.109375 144.125 374.03125 143.511719 358.296875 132.023438 C 363.878906 128.722656 373.335938 121.535156 377.476562 108.996094 C 378.992188 104.402344 379.636719 99.546875 379.441406 94.449219 C 386.785156 96.0625 394.496094 99.382812 402.519531 104.410156 Z M 467.351562 233.191406 L 467.375 230.667969 L 465.050781 229.679688 C 463.957031 229.222656 460.566406 226.214844 452.683594 208.316406 C 452.191406 207.191406 451.828125 206.390625 451.660156 206.058594 C 445.546875 194.078125 438.214844 185.015625 429.773438 178.914062 C 433.515625 170.019531 435.113281 159.023438 434.5 145.996094 C 434.484375 145.613281 434.398438 144.753906 434.273438 143.53125 C 432.214844 123.9375 433.667969 119.636719 434.390625 118.699219 L 435.9375 116.6875 L 435.109375 115.28125 L 435.113281 115.28125 L 434.441406 114.136719 L 433.914062 113.242188 L 432.636719 111.070312 L 430.140625 111.421875 C 429.023438 111.664062 424.484375 110.742188 408.511719 99.402344 C 407.53125 98.714844 406.84375 98.226562 406.527344 98.027344 C 396.828125 91.960938 387.472656 88.15625 378.511719 86.59375 C 376.882812 78.328125 373.21875 69.503906 367.511719 60.171875 C 367.3125 59.847656 366.835938 59.148438 366.144531 58.160156 C 354.578125 41.492188 354.140625 37.21875 354.28125 36.304688 L 354.664062 33.8125 L 353.289062 32.980469 L 349.089844 30.4375 L 347.058594 31.960938 C 346.117188 32.679688 341.804688 34.105469 322.3125 31.84375 C 321.117188 31.703125 320.273438 31.613281 319.898438 31.59375 C 307.015625 30.839844 295.890625 32.410156 286.605469 36.246094 C 280.898438 28.894531 272.550781 22.234375 261.578125 16.347656 C 261.25 16.164062 260.449219 15.789062 259.324219 15.273438 C 241.480469 6.972656 238.539062 3.519531 238.105469 2.414062 L 237.171875 0.0703125 L 235.554688 0.0507812 L 235.554688 0.046875 L 233.566406 0.0273438 L 233.191406 0.0234375 L 230.667969 0 L 229.683594 2.324219 C 229.320312 3.183594 226.707031 6.609375 208.238281 14.722656 C 207.15625 15.199219 206.390625 15.546875 206.050781 15.714844 C 194.070312 21.828125 185.007812 29.160156 178.90625 37.605469 C 169.992188 33.855469 158.976562 32.257812 145.996094 32.875 C 145.613281 32.890625 144.746094 32.976562 143.523438 33.101562 C 123.933594 35.175781 119.644531 33.699219 118.703125 32.984375 L 116.695312 31.441406 L 115.289062 32.261719 L 115.289062 32.257812 L 111.0625 34.734375 L 111.414062 37.234375 C 111.585938 38.410156 110.742188 42.878906 99.398438 58.863281 C 98.707031 59.84375 98.21875 60.53125 98.023438 60.851562 C 91.863281 70.6875 87.933594 80.066406 86.207031 88.933594 C 78.054688 90.597656 69.355469 94.246094 60.171875 99.863281 C 59.847656 100.0625 59.125 100.5625 58.109375 101.261719 C 41.980469 112.449219 37.527344 113.300781 36.296875 113.09375 L 33.78125 112.703125 L 31.851562 115.957031 C 31.808594 116.019531 31.753906 116.070312 31.714844 116.136719 C 31.671875 116.207031 31.652344 116.28125 31.613281 116.351562 L 30.449219 118.300781 L 31.839844 120.160156 C 31.902344 120.253906 31.964844 120.347656 32.035156 120.433594 C 32.769531 121.59375 34.015625 126.257812 31.839844 145.058594 C 31.699219 146.25 31.609375 147.101562 31.585938 147.476562 C 30.847656 160.34375 32.417969 171.472656 36.253906 180.765625 C 28.894531 186.472656 22.230469 194.824219 16.335938 205.800781 C 16.15625 206.132812 15.796875 206.90625 15.289062 208 C 6.75 226.386719 3.277344 228.933594 2.417969 229.269531 L 0.0703125 230.203125 L 0.0507812 231.820312 L 0.046875 231.820312 L 0.0273438 233.808594 L 0.0234375 234.183594 L 0 236.707031 L 2.324219 237.695312 C 3.183594 238.054688 6.613281 240.667969 14.714844 259.132812 C 15.195312 260.21875 15.539062 260.984375 15.707031 261.324219 C 21.820312 273.300781 29.152344 282.367188 37.597656 288.46875 C 33.859375 297.359375 32.265625 308.355469 32.875 321.386719 C 32.890625 321.769531 32.980469 322.632812 33.101562 323.84375 C 35.160156 343.445312 33.699219 347.746094 32.980469 348.6875 L 31.449219 350.6875 L 32.257812 352.078125 L 34.71875 356.3125 L 37.226562 355.960938 C 38.433594 355.847656 42.878906 356.640625 58.835938 367.953125 C 59.828125 368.660156 60.535156 369.15625 60.851562 369.355469 C 70.539062 375.421875 79.902344 379.238281 88.867188 380.800781 C 90.496094 389.0625 94.15625 397.882812 99.859375 407.203125 C 100.058594 407.527344 100.558594 408.257812 101.253906 409.265625 C 112.480469 425.449219 113.273438 429.914062 113.09375 431.085938 L 112.710938 433.585938 L 116.125 435.625 L 118.292969 436.921875 L 120.316406 435.414062 C 121.257812 434.691406 125.601562 433.273438 145.066406 435.535156 C 146.25 435.675781 147.097656 435.765625 147.472656 435.789062 C 160.300781 436.53125 171.449219 434.960938 180.761719 431.121094 C 186.464844 438.480469 194.816406 445.144531 205.796875 451.042969 C 206.125 451.21875 206.890625 451.578125 207.964844 452.070312 C 226.382812 460.617188 228.933594 464.097656 229.269531 464.964844 L 230.203125 467.3125 L 234.183594 467.359375 L 236.707031 467.390625 L 237.695312 465.058594 C 238.160156 463.964844 241.167969 460.558594 259.109375 452.667969 C 260.207031 452.179688 260.984375 451.835938 261.316406 451.667969 C 273.300781 445.550781 282.367188 438.21875 288.46875 429.769531 C 297.503906 433.515625 308.503906 435.117188 321.378906 434.5 C 321.761719 434.484375 322.621094 434.394531 323.835938 434.273438 C 343.429688 432.214844 347.742188 433.667969 348.683594 434.386719 L 350.675781 435.925781 L 352.078125 435.117188 L 353.8125 434.113281 L 354.117188 433.933594 L 356.320312 432.65625 L 355.960938 430.148438 C 355.789062 428.96875 356.625 424.507812 367.949219 408.539062 C 368.65625 407.546875 369.148438 406.839844 369.347656 406.523438 C 375.414062 396.835938 379.222656 387.476562 380.789062 378.511719 C 389.050781 376.882812 397.871094 373.222656 407.199219 367.515625 C 407.519531 367.316406 408.242188 366.820312 409.257812 366.121094 C 425.484375 354.871094 429.921875 354.09375 431.078125 354.28125 L 433.5625 354.664062 L 434.402344 353.277344 L 434.410156 353.28125 L 436.929688 349.082031 L 435.414062 347.058594 C 434.703125 346.101562 433.285156 341.78125 435.53125 322.308594 C 435.671875 321.117188 435.761719 320.277344 435.78125 319.902344 C 436.53125 306.921875 434.933594 295.703125 431.023438 286.359375 C 438.507812 280.707031 445.203125 272.441406 451.027344 261.589844 C 451.210938 261.257812 451.585938 260.453125 452.109375 259.328125 C 460.402344 241.476562 463.855469 238.539062 464.960938 238.105469 L 467.308594 237.171875 L 467.324219 235.558594 L 467.328125 235.558594 L 467.347656 233.519531 L 467.351562 233.191406"
    fill="#002441"
    stroke="#002441"
    strokeWidth="0"
  />
</svg>